<svg xmlns="http://www.w3.org/2000/svg" xmlns:xlink="http://www.w3.org/1999/xlink" version="1.1" width="256" height="256" viewBox="0 0 256 256" xml:space="preserve">
<desc>Created with Fabric.js 1.7.22</desc>
<defs>
</defs>
<g transform="translate(128 128) scale(0.72 0.72)" style="">
	<g style="stroke: none; stroke-width: 0; stroke-dasharray: none; stroke-linecap: butt; stroke-linejoin: miter; stroke-miterlimit: 10; fill: none; fill-rule: nonzero; opacity: 1;" transform="translate(-175.05 -175.05000000000004) scale(3.89 3.89)" >
	<path d="M 68.055 90 h -46.11 C 9.844 90 0 80.155 0 68.055 v -46.11 C 0 9.844 9.844 0 21.945 0 h 46.11 C 80.155 0 90 9.844 90 21.945 v 46.11 C 90 80.155 80.155 90 68.055 90 z M 21.945 3 C 11.499 3 3 11.499 3 21.945 v 46.11 C 3 78.501 11.499 87 21.945 87 h 46.11 C 78.501 87 87 78.501 87 68.055 v -46.11 C 87 11.499 78.501 3 68.055 3 H 21.945 z" style="stroke: none; stroke-width: 1; stroke-dasharray: none; stroke-linecap: butt; stroke-linejoin: miter; stroke-miterlimit: 10; fill: rgb(222,222,222); fill-rule: nonzero; opacity: 1;" transform=" matrix(1 0 0 1 0 0) " stroke-linecap="round" />
	<path d="M 75.856 48.205 c -8.356 6.171 -20.495 9.448 -30.933 9.448 c -14.629 0 -27.809 -5.41 -37.765 -14.4 c -0.787 -0.711 -0.076 -1.676 0.863 -1.117 c 10.768 6.248 24.051 10.032 37.79 10.032 c 9.27 0 19.454 -1.93 28.825 -5.892 C 76.034 45.639 77.228 47.189 75.856 48.205 z" style="stroke: none; stroke-width: 1; stroke-dasharray: none; stroke-linecap: butt; stroke-linejoin: miter; stroke-miterlimit: 10; fill: rgb(222,222,222); fill-rule: nonzero; opacity: 1;" transform=" matrix(1 0 0 1 0 0) " stroke-linecap="round" />
	<path d="M 78.167 54.249 c -0.686 0.584 -1.346 0.279 -1.041 -0.483 c 1.016 -2.514 3.276 -8.178 2.21 -9.524 c -1.067 -1.371 -7.06 -0.66 -9.778 -0.33 c -0.813 0.102 -0.94 -0.61 -0.203 -1.143 c 4.775 -3.352 12.622 -2.387 13.537 -1.27 C 83.805 42.643 82.637 50.49 78.167 54.249 z" style="stroke: none; stroke-width: 1; stroke-dasharray: none; stroke-linecap: butt; stroke-linejoin: miter; stroke-miterlimit: 10; fill: rgb(222,222,222); fill-rule: nonzero; opacity: 1;" transform=" matrix(1 0 0 1 0 0) " stroke-linecap="round" />
	<path d="M 53.602 24.507 h -0.185 c -0.397 0 -0.779 -0.158 -1.061 -0.439 l -3.102 -3.102 l -3.102 3.102 c -0.282 0.281 -0.663 0.439 -1.061 0.439 h -0.185 c -0.398 0 -0.779 -0.158 -1.061 -0.439 l -3.102 -3.102 l -3.102 3.102 c -0.281 0.281 -0.663 0.439 -1.061 0.439 h -0.185 c -0.398 0 -0.779 -0.158 -1.061 -0.439 l -3.102 -3.102 l -2.614 2.614 c -0.428 0.429 -1.073 0.559 -1.635 0.325 c -0.561 -0.232 -0.926 -0.779 -0.926 -1.386 V 1.5 c 0 -0.829 0.671 -1.5 1.5 -1.5 h 32.877 c 0.828 0 1.5 0.671 1.5 1.5 v 21.02 c 0 0.607 -0.365 1.154 -0.926 1.386 c -0.56 0.233 -1.204 0.105 -1.635 -0.325 l -2.614 -2.614 l -3.102 3.102 C 54.381 24.349 53.999 24.507 53.602 24.507 z M 40.745 17.345 c 0.384 0 0.768 0.146 1.061 0.439 L 45 20.978 l 3.194 -3.194 c 0.586 -0.586 1.535 -0.586 2.121 0 l 3.193 3.194 l 3.194 -3.194 c 0.586 -0.586 1.535 -0.586 2.121 0 l 1.114 1.114 V 3 H 30.061 v 15.898 l 1.114 -1.114 c 0.586 -0.586 1.535 -0.586 2.121 0 l 3.194 3.194 l 3.194 -3.194 C 39.978 17.491 40.361 17.345 40.745 17.345 z" style="stroke: none; stroke-width: 1; stroke-dasharray: none; stroke-linecap: butt; stroke-linejoin: miter; stroke-miterlimit: 10; fill: rgb(222,222,222); fill-rule: nonzero; opacity: 1;" transform=" matrix(1 0 0 1 0 0) " stroke-linecap="round" />
</g>
</g>
</svg>